<svg id="24d6a033-b28d-4af7-a9be-1ebb66876cb9" data-name="2d6c2cab-9ec1-44c2-8c95-9bef5de44516" xmlns="http://www.w3.org/2000/svg" viewBox="0 0 512 512"><title>placeholder-info</title><path d="M256,0C153.76,0,70.57,83.18,70.57,185.43c0,126.88,165.94,313.16,173,321a16.69,16.69,0,0,0,23.57,1.27,15.22,15.22,0,0,0,1.27-1.27c7.07-7.87,173-194.15,173-321C441.42,83.18,358.24,0,256,0Zm0,278.72a93.3,93.3,0,1,1,93.29-93.31v0A93.4,93.4,0,0,1,256,278.72Z" fill="#ff0"/><rect x="139" y="74" width="222.5" height="222.5" fill="#ff0"/></svg>